<svg xmlns="http://www.w3.org/2000/svg" xmlns:xlink="http://www.w3.org/1999/xlink" preserveAspectRatio="xMidYMid" width="2100" height="661.062" viewBox="0 0 2100 661.062">
  <defs>
    <style>
      .cls-1 {
        fill: #8c7493;
        fill-rule: evenodd;
      }
    </style>
  </defs>
  <path d="M2153.156,397.434 L2146.844,405.190 L1862.813,174.047 L1591.759,472.014 L1591.807,472.071 L1591.365,472.448 L1585.699,478.677 L1584.900,477.950 L1584.193,478.553 L1579.491,473.029 L1578.301,471.947 L1578.440,471.795 L1384.088,243.479 L1301.322,317.049 L1299.760,315.292 L1298.254,316.623 L1030.171,13.318 L671.494,443.730 L671.634,443.878 L670.393,445.051 L665.841,450.513 L665.188,449.969 L664.366,450.746 L464.433,239.166 L-10.680,661.051 L-17.320,653.573 L464.680,225.573 L465.262,226.229 L465.634,225.878 L664.577,436.410 L1028.159,0.111 L1029.941,1.596 L1031.746,0.001 L1300.666,304.253 L1384.678,229.575 L1385.416,230.405 L1385.807,230.071 L1585.224,464.337 L1860.301,161.947 L1861.702,163.221 L1863.156,161.434 L2153.156,397.434 Z" class="cls-1"/>
</svg>
